<svg viewBox="0 0 1400 1000" xmlns="http://www.w3.org/2000/svg">
  <defs>
    <style>
      .title-text { font-family: 'Segoe UI', Tahoma, Geneva, Verdana, sans-serif; font-size: 16px; font-weight: bold; fill: #000000; text-anchor: middle; }
      .subtitle-text { font-family: 'Segoe UI', Tahoma, Geneva, Verdana, sans-serif; font-size: 12px; fill: #000000; text-anchor: middle; }
      .decision-text { font-family: 'Segoe UI', Tahoma, Geneva, Verdana, sans-serif; font-size: 14px; font-weight: bold; fill: #000000; text-anchor: middle; }
      .edge-label { font-family: 'Segoe UI', Tahoma, Geneva, Verdana, sans-serif; font-size: 11px; fill: #000000; text-anchor: middle; }
      .box { stroke: #000000; stroke-width: 2; }
      .diamond { stroke: #000000; stroke-width: 2; }
      .cylinder { stroke: #000000; stroke-width: 2; }
      .arrow { stroke: #000000; stroke-width: 2; fill: none; marker-end: url(#arrowhead); }
    </style>
    <marker id="arrowhead" markerWidth="10" markerHeight="7" refX="9" refY="3.5" orient="auto">
      <polygon points="0 0, 10 3.5, 0 7" fill="#000000" />
    </marker>
  </defs>

  <!-- Input Directory -->
  <rect x="50" y="20" width="180" height="70" rx="5" class="box" fill="#e1f5fe"/>
  <text x="140" y="45" class="title-text">Image Directory</text>
  <text x="140" y="65" class="subtitle-text">D:\images</text>

  <!-- Main Entry Point -->
  <rect x="330" y="20" width="150" height="70" rx="5" class="box" fill="#ffffff"/>
  <text x="405" y="45" class="title-text">main.py</text>
  <text x="405" y="65" class="subtitle-text">Entry Point</text>

  <!-- Mode Selection Decision -->
  <polygon points="405,140 470,170 405,200 340,170" class="diamond" fill="#ffebee"/>
  <text x="405" y="175" class="decision-text">Mode Selection</text>

  <!-- Pipeline Modules -->
  <rect x="60" y="280" width="220" height="70" rx="5" class="box" fill="#ffffff"/>
  <text x="170" y="305" class="title-text">feature_extraction_pipeline.py</text>
  <text x="170" y="325" class="subtitle-text">Learning Mode</text>

  <rect x="340" y="280" width="220" height="70" rx="5" class="box" fill="#ffffff"/>
  <text x="450" y="305" class="title-text">similarity_search_pipeline.py</text>
  <text x="450" y="325" class="subtitle-text">Comparison Mode</text>

  <rect x="620" y="280" width="200" height="70" rx="5" class="box" fill="#ffffff"/>
  <text x="720" y="305" class="title-text">interactive_pipeline.py</text>
  <text x="720" y="325" class="subtitle-text">Interactive Mode</text>

  <!-- MultiFeatureExtractor -->
  <rect x="90" y="400" width="160" height="50" rx="5" class="box" fill="#ffffff"/>
  <text x="170" y="420" class="title-text">MultiFeatureExtractor</text>
  <text x="170" y="440" class="subtitle-text">Feature Processing</text>

  <!-- Feature Types -->
  <rect x="20" y="520" width="140" height="60" rx="5" class="box" fill="#ffffff"/>
  <text x="90" y="540" class="title-text">EfficientNet</text>
  <text x="90" y="560" class="subtitle-text">2560 dimensions</text>

  <rect x="180" y="520" width="140" height="60" rx="5" class="box" fill="#ffffff"/>
  <text x="250" y="540" class="title-text">HSV Histogram</text>
  <text x="250" y="560" class="subtitle-text">32³ bins</text>

  <rect x="340" y="520" width="140" height="60" rx="5" class="box" fill="#ffffff"/>
  <text x="410" y="540" class="title-text">LBP Features</text>
  <text x="410" y="560" class="subtitle-text">26 bins</text>

  <rect x="500" y="520" width="140" height="60" rx="5" class="box" fill="#ffffff"/>
  <text x="570" y="540" class="title-text">ORB Descriptors</text>
  <text x="570" y="560" class="subtitle-text">500 features</text>

  <!-- Storage -->
  <ellipse cx="320" cy="680" rx="140" ry="40" class="cylinder" fill="#f3e5f5"/>
  <text x="320" y="675" class="title-text">Pickle Files</text>
  <text x="320" y="695" class="subtitle-text">D:\Code_image_rec\pickles</text>

  <ellipse cx="120" cy="680" rx="80" ry="40" class="cylinder" fill="#fff3e0"/>
  <text x="120" y="675" class="title-text">SQLite DB</text>
  <text x="120" y="695" class="subtitle-text">metadata.db</text>

  <!-- Similarity Search -->
  <rect x="700" y="520" width="180" height="60" rx="5" class="box" fill="#ffffff"/>
  <text x="790" y="540" class="title-text">SmartSimilaritySearch</text>
  <text x="790" y="560" class="subtitle-text">Core Search Engine</text>

  <!-- FAISS Decision -->
  <polygon points="790,640 850,670 790,700 730,670" class="diamond" fill="#ffebee"/>
  <text x="790" y="675" class="decision-text">FAISS Available?</text>

  <!-- Search Methods -->
  <rect x="900" y="720" width="140" height="60" rx="5" class="box" fill="#ffffff"/>
  <text x="970" y="740" class="title-text">FAISS Indices</text>
  <text x="970" y="760" class="subtitle-text">Fast Search</text>

  <rect x="650" y="720" width="140" height="60" rx="5" class="box" fill="#ffffff"/>
  <text x="720" y="740" class="title-text">Direct Computation</text>
  <text x="720" y="760" class="subtitle-text">Slower but Works</text>

  <!-- Results -->
  <rect x="790" y="840" width="140" height="60" rx="5" class="box" fill="#e8f5e8"/>
  <text x="860" y="860" class="title-text">Similarity Results</text>
  <text x="860" y="880" class="subtitle-text">Ranked Output</text>

  <!-- Interactive GUI -->
  <rect x="1050" y="280" width="180" height="70" rx="5" class="box" fill="#ffffff"/>
  <text x="1140" y="305" class="title-text">Interactive GUI</text>
  <text x="1140" y="325" class="subtitle-text">tkinter file picker</text>

  <rect x="1050" y="400" width="180" height="60" rx="5" class="box" fill="#ffffff"/>
  <text x="1140" y="420" class="title-text">Real-time Feature</text>
  <text x="1140" y="440" class="subtitle-text">Extraction</text>

  <!-- Display -->
  <rect x="1050" y="840" width="140" height="60" rx="5" class="box" fill="#ffffff"/>
  <text x="1120" y="860" class="title-text">Visual Display</text>
  <text x="1120" y="880" class="subtitle-text">matplotlib</text>

  <!-- Arrows -->
  <line x1="230" y1="55" x2="330" y2="55" class="arrow"/>
  <line x1="405" y1="90" x2="405" y2="140" class="arrow"/>
  
  <line x1="370" y1="170" x2="170" y2="280" class="arrow"/>
  <text x="270" y="225" class="edge-label">learning</text>
  
  <line x1="405" y1="200" x2="450" y2="280" class="arrow"/>
  <text x="428" y="240" class="edge-label">comparison</text>
  
  <line x1="440" y1="170" x2="720" y2="280" class="arrow"/>
  <text x="580" y="225" class="edge-label">interactive</text>

  <line x1="170" y1="350" x2="170" y2="400" class="arrow"/>
  <line x1="170" y1="450" x2="90" y2="520" class="arrow"/>
  <line x1="170" y1="450" x2="250" y2="520" class="arrow"/>
  <line x1="170" y1="450" x2="410" y2="520" class="arrow"/>
  <line x1="170" y1="450" x2="570" y2="520" class="arrow"/>

  <line x1="90" y1="580" x2="250" y2="650" class="arrow"/>
  <line x1="250" y1="580" x2="300" y2="650" class="arrow"/>
  <line x1="410" y1="580" x2="350" y2="650" class="arrow"/>
  <line x1="570" y1="580" x2="390" y2="650" class="arrow"/>

  <line x1="120" y1="350" x2="120" y2="640" class="arrow"/>
  <line x1="320" y1="720" x2="790" y2="580" class="arrow"/>
  <line x1="200" y1="680" x2="730" y2="580" class="arrow"/>

  <line x1="790" y1="640" x2="790" y2="580" class="arrow"/>
  <line x1="830" y1="670" x2="970" y2="720" class="arrow"/>
  <text x="900" y="695" class="edge-label">Yes</text>
  
  <line x1="750" y1="670" x2="720" y2="720" class="arrow"/>
  <text x="735" y="695" class="edge-label">No</text>

  <line x1="970" y1="780" x2="860" y2="840" class="arrow"/>
  <line x1="720" y1="780" x2="860" y2="840" class="arrow"/>

  <line x1="720" y1="350" x2="1140" y2="350" class="arrow"/>
  <line x1="1140" y1="350" x2="1140" y2="400" class="arrow"/>
  <line x1="1140" y1="460" x2="790" y2="520" class="arrow"/>
  <line x1="860" y1="900" x2="1120" y2="900" class="arrow"/>
</svg>